<?xml version="1.0" encoding="UTF-8"?>
<!DOCTYPE svg PUBLIC "-//W3C//DTD SVG 1.1//EN" "http://www.w3.org/Graphics/SVG/1.1/DTD/svg11.dtd">
<svg xmlns="http://www.w3.org/2000/svg" version="1.1" width="350px" height="350px" style="shape-rendering:geometricPrecision; text-rendering:geometricPrecision; image-rendering:optimizeQuality; fill-rule:evenodd; clip-rule:evenodd" xmlns:xlink="http://www.w3.org/1999/xlink">
<g><path style="opacity:1" fill="#00a1e8" d="M -0.5,-0.5 C 116.167,-0.5 232.833,-0.5 349.5,-0.5C 349.5,116.167 349.5,232.833 349.5,349.5C 232.833,349.5 116.167,349.5 -0.5,349.5C -0.5,232.833 -0.5,116.167 -0.5,-0.5 Z"/></g>
<g><path style="opacity:1" fill="#fefffe" d="M 61.5,61.5 C 120.833,61.5 180.167,61.5 239.5,61.5C 239.5,65.5 239.5,69.5 239.5,73.5C 231.833,73.5 224.167,73.5 216.5,73.5C 216.5,77.5 216.5,81.5 216.5,85.5C 224.167,85.5 231.833,85.5 239.5,85.5C 239.5,89.5 239.5,93.5 239.5,97.5C 227.833,97.5 216.167,97.5 204.5,97.5C 204.5,89.5 204.5,81.5 204.5,73.5C 200.5,73.5 196.5,73.5 192.5,73.5C 192.5,81.5 192.5,89.5 192.5,97.5C 180.5,97.5 168.5,97.5 156.5,97.5C 156.5,89.5 156.5,81.5 156.5,73.5C 144.5,73.5 132.5,73.5 120.5,73.5C 120.5,77.5 120.5,81.5 120.5,85.5C 128.5,85.5 136.5,85.5 144.5,85.5C 144.5,89.5 144.5,93.5 144.5,97.5C 132.833,97.5 121.167,97.5 109.5,97.5C 109.5,89.5 109.5,81.5 109.5,73.5C 105.5,73.5 101.5,73.5 97.5,73.5C 97.5,81.5 97.5,89.5 97.5,97.5C 85.5,97.5 73.5,97.5 61.5,97.5C 61.5,85.5 61.5,73.5 61.5,61.5 Z"/></g>
<g><path style="opacity:1" fill="#fefffe" d="M 251.5,61.5 C 263.5,61.5 275.5,61.5 287.5,61.5C 287.5,89.1667 287.5,116.833 287.5,144.5C 283.5,144.5 279.5,144.5 275.5,144.5C 275.5,120.833 275.5,97.1667 275.5,73.5C 267.5,73.5 259.5,73.5 251.5,73.5C 251.5,69.5 251.5,65.5 251.5,61.5 Z"/></g>
<g><path style="opacity:1" fill="#00a1e8" d="M 73.5,73.5 C 77.5,73.5 81.5,73.5 85.5,73.5C 85.5,77.5 85.5,81.5 85.5,85.5C 81.5,85.5 77.5,85.5 73.5,85.5C 73.5,81.5 73.5,77.5 73.5,73.5 Z"/></g>
<g><path style="opacity:1" fill="#00a1e8" d="M 168.5,73.5 C 172.5,73.5 176.5,73.5 180.5,73.5C 180.5,77.5 180.5,81.5 180.5,85.5C 176.5,85.5 172.5,85.5 168.5,85.5C 168.5,81.5 168.5,77.5 168.5,73.5 Z"/></g>
<g><path style="opacity:1" fill="#fefffe" d="M 251.5,85.5 C 255.5,85.5 259.5,85.5 263.5,85.5C 263.5,105.167 263.5,124.833 263.5,144.5C 243.833,144.5 224.167,144.5 204.5,144.5C 204.5,132.833 204.5,121.167 204.5,109.5C 216.167,109.5 227.833,109.5 239.5,109.5C 239.5,113.167 239.5,116.833 239.5,120.5C 231.833,120.5 224.167,120.5 216.5,120.5C 216.5,124.5 216.5,128.5 216.5,132.5C 228.167,132.5 239.833,132.5 251.5,132.5C 251.5,116.833 251.5,101.167 251.5,85.5 Z"/></g>
<g><path style="opacity:1" fill="#fefffe" d="M 61.5,109.5 C 73.5,109.5 85.5,109.5 97.5,109.5C 97.5,117.167 97.5,124.833 97.5,132.5C 101.5,132.5 105.5,132.5 109.5,132.5C 109.5,124.833 109.5,117.167 109.5,109.5C 113.167,109.5 116.833,109.5 120.5,109.5C 120.5,121.167 120.5,132.833 120.5,144.5C 104.833,144.5 89.1667,144.5 73.5,144.5C 73.5,148.5 73.5,152.5 73.5,156.5C 89.1667,156.5 104.833,156.5 120.5,156.5C 120.5,160.5 120.5,164.5 120.5,168.5C 104.833,168.5 89.1667,168.5 73.5,168.5C 73.5,172.5 73.5,176.5 73.5,180.5C 89.1667,180.5 104.833,180.5 120.5,180.5C 120.5,184.5 120.5,188.5 120.5,192.5C 100.833,192.5 81.1667,192.5 61.5,192.5C 61.5,164.833 61.5,137.167 61.5,109.5 Z"/></g>
<g><path style="opacity:1" fill="#fefffe" d="M 132.5,109.5 C 144.5,109.5 156.5,109.5 168.5,109.5C 168.5,117.167 168.5,124.833 168.5,132.5C 172.5,132.5 176.5,132.5 180.5,132.5C 180.5,124.833 180.5,117.167 180.5,109.5C 184.5,109.5 188.5,109.5 192.5,109.5C 192.5,121.167 192.5,132.833 192.5,144.5C 176.5,144.5 160.5,144.5 144.5,144.5C 144.5,148.5 144.5,152.5 144.5,156.5C 160.5,156.5 176.5,156.5 192.5,156.5C 192.5,160.5 192.5,164.5 192.5,168.5C 176.5,168.5 160.5,168.5 144.5,168.5C 144.5,172.5 144.5,176.5 144.5,180.5C 160.5,180.5 176.5,180.5 192.5,180.5C 192.5,184.5 192.5,188.5 192.5,192.5C 172.5,192.5 152.5,192.5 132.5,192.5C 132.5,164.833 132.5,137.167 132.5,109.5 Z"/></g>
<g><path style="opacity:1" fill="#00a1e8" d="M 73.5,120.5 C 77.5,120.5 81.5,120.5 85.5,120.5C 85.5,124.5 85.5,128.5 85.5,132.5C 81.5,132.5 77.5,132.5 73.5,132.5C 73.5,128.5 73.5,124.5 73.5,120.5 Z"/></g>
<g><path style="opacity:1" fill="#00a1e8" d="M 144.5,120.5 C 148.5,120.5 152.5,120.5 156.5,120.5C 156.5,124.5 156.5,128.5 156.5,132.5C 152.5,132.5 148.5,132.5 144.5,132.5C 144.5,128.5 144.5,124.5 144.5,120.5 Z"/></g>
<g><path style="opacity:1" fill="#fefffe" d="M 204.5,156.5 C 216.167,156.5 227.833,156.5 239.5,156.5C 239.5,164.5 239.5,172.5 239.5,180.5C 243.5,180.5 247.5,180.5 251.5,180.5C 251.5,172.5 251.5,164.5 251.5,156.5C 255.5,156.5 259.5,156.5 263.5,156.5C 263.5,164.5 263.5,172.5 263.5,180.5C 267.5,180.5 271.5,180.5 275.5,180.5C 275.5,172.5 275.5,164.5 275.5,156.5C 279.5,156.5 283.5,156.5 287.5,156.5C 287.5,168.5 287.5,180.5 287.5,192.5C 271.5,192.5 255.5,192.5 239.5,192.5C 239.5,200.5 239.5,208.5 239.5,216.5C 227.833,216.5 216.167,216.5 204.5,216.5C 204.5,212.5 204.5,208.5 204.5,204.5C 212.5,204.5 220.5,204.5 228.5,204.5C 228.5,200.5 228.5,196.5 228.5,192.5C 220.5,192.5 212.5,192.5 204.5,192.5C 204.5,180.5 204.5,168.5 204.5,156.5 Z"/></g>
<g><path style="opacity:1" fill="#00a1e8" d="M 216.5,168.5 C 220.5,168.5 224.5,168.5 228.5,168.5C 228.5,172.5 228.5,176.5 228.5,180.5C 224.5,180.5 220.5,180.5 216.5,180.5C 216.5,176.5 216.5,172.5 216.5,168.5 Z"/></g>
<g><path style="opacity:1" fill="#fefffe" d="M 61.5,204.5 C 65.5,204.5 69.5,204.5 73.5,204.5C 73.5,232.167 73.5,259.833 73.5,287.5C 69.5,287.5 65.5,287.5 61.5,287.5C 61.5,259.833 61.5,232.167 61.5,204.5 Z"/></g>
<g><path style="opacity:1" fill="#fefffe" d="M 85.5,204.5 C 89.5,204.5 93.5,204.5 97.5,204.5C 97.5,212.5 97.5,220.5 97.5,228.5C 101.5,228.5 105.5,228.5 109.5,228.5C 109.5,220.5 109.5,212.5 109.5,204.5C 113.167,204.5 116.833,204.5 120.5,204.5C 120.5,216.167 120.5,227.833 120.5,239.5C 116.833,239.5 113.167,239.5 109.5,239.5C 109.5,243.5 109.5,247.5 109.5,251.5C 113.167,251.5 116.833,251.5 120.5,251.5C 120.5,263.5 120.5,275.5 120.5,287.5C 108.833,287.5 97.1667,287.5 85.5,287.5C 85.5,275.5 85.5,263.5 85.5,251.5C 89.5,251.5 93.5,251.5 97.5,251.5C 97.5,247.5 97.5,243.5 97.5,239.5C 93.5,239.5 89.5,239.5 85.5,239.5C 85.5,227.833 85.5,216.167 85.5,204.5 Z"/></g>
<g><path style="opacity:1" fill="#fefffe" d="M 132.5,204.5 C 152.5,204.5 172.5,204.5 192.5,204.5C 192.5,208.5 192.5,212.5 192.5,216.5C 172.5,216.5 152.5,216.5 132.5,216.5C 132.5,212.5 132.5,208.5 132.5,204.5 Z"/></g>
<g><path style="opacity:1" fill="#fefffe" d="M 251.5,204.5 C 255.5,204.5 259.5,204.5 263.5,204.5C 263.5,212.5 263.5,220.5 263.5,228.5C 267.5,228.5 271.5,228.5 275.5,228.5C 275.5,220.5 275.5,212.5 275.5,204.5C 279.5,204.5 283.5,204.5 287.5,204.5C 287.5,216.167 287.5,227.833 287.5,239.5C 283.5,239.5 279.5,239.5 275.5,239.5C 275.5,243.5 275.5,247.5 275.5,251.5C 279.5,251.5 283.5,251.5 287.5,251.5C 287.5,263.5 287.5,275.5 287.5,287.5C 275.5,287.5 263.5,287.5 251.5,287.5C 251.5,275.5 251.5,263.5 251.5,251.5C 255.5,251.5 259.5,251.5 263.5,251.5C 263.5,247.5 263.5,243.5 263.5,239.5C 259.5,239.5 255.5,239.5 251.5,239.5C 251.5,227.833 251.5,216.167 251.5,204.5 Z"/></g>
<g><path style="opacity:1" fill="#fefffe" d="M 132.5,228.5 C 136.5,228.5 140.5,228.5 144.5,228.5C 144.5,248.167 144.5,267.833 144.5,287.5C 140.5,287.5 136.5,287.5 132.5,287.5C 132.5,267.833 132.5,248.167 132.5,228.5 Z"/></g>
<g><path style="opacity:1" fill="#fefffe" d="M 156.5,228.5 C 168.5,228.5 180.5,228.5 192.5,228.5C 192.5,244.167 192.5,259.833 192.5,275.5C 196.5,275.5 200.5,275.5 204.5,275.5C 204.5,259.833 204.5,244.167 204.5,228.5C 208.5,228.5 212.5,228.5 216.5,228.5C 216.5,248.167 216.5,267.833 216.5,287.5C 196.5,287.5 176.5,287.5 156.5,287.5C 156.5,275.5 156.5,263.5 156.5,251.5C 164.5,251.5 172.5,251.5 180.5,251.5C 180.5,247.5 180.5,243.5 180.5,239.5C 172.5,239.5 164.5,239.5 156.5,239.5C 156.5,235.833 156.5,232.167 156.5,228.5 Z"/></g>
<g><path style="opacity:1" fill="#fefffe" d="M 228.5,228.5 C 232.167,228.5 235.833,228.5 239.5,228.5C 239.5,248.167 239.5,267.833 239.5,287.5C 235.833,287.5 232.167,287.5 228.5,287.5C 228.5,267.833 228.5,248.167 228.5,228.5 Z"/></g>
<g><path style="opacity:1" fill="#00a1e8" d="M 97.5,263.5 C 101.5,263.5 105.5,263.5 109.5,263.5C 109.5,267.5 109.5,271.5 109.5,275.5C 105.5,275.5 101.5,275.5 97.5,275.5C 97.5,271.5 97.5,267.5 97.5,263.5 Z"/></g>
<g><path style="opacity:1" fill="#00a1e8" d="M 168.5,263.5 C 172.5,263.5 176.5,263.5 180.5,263.5C 180.5,267.5 180.5,271.5 180.5,275.5C 176.5,275.5 172.5,275.5 168.5,275.5C 168.5,271.5 168.5,267.5 168.5,263.5 Z"/></g>
<g><path style="opacity:1" fill="#00a1e8" d="M 263.5,263.5 C 267.5,263.5 271.5,263.5 275.5,263.5C 275.5,267.5 275.5,271.5 275.5,275.5C 271.5,275.5 267.5,275.5 263.5,275.5C 263.5,271.5 263.5,267.5 263.5,263.5 Z"/></g>
</svg>